<mxfile host="app.diagrams.net" agent="Mozilla/5.0 (X11; Linux x86_64) AppleWebKit/537.36 (KHTML, like Gecko) Chrome/129.0.0.0 Safari/537.36" version="24.7.16">
  <diagram id="C5RBs43oDa-KdzZeNtuy" name="Page-1">
    <mxGraphModel dx="1687" dy="927" grid="1" gridSize="10" guides="1" tooltips="1" connect="1" arrows="1" fold="1" page="1" pageScale="1" pageWidth="827" pageHeight="1169" math="0" shadow="0">
      <root>
        <mxCell id="WIyWlLk6GJQsqaUBKTNV-0" />
        <mxCell id="WIyWlLk6GJQsqaUBKTNV-1" parent="WIyWlLk6GJQsqaUBKTNV-0" />
        <mxCell id="KT4kfXIXidO2N-l5Cffy-6" style="edgeStyle=orthogonalEdgeStyle;rounded=0;orthogonalLoop=1;jettySize=auto;html=1;entryX=0.5;entryY=1;entryDx=0;entryDy=0;" edge="1" parent="WIyWlLk6GJQsqaUBKTNV-1" source="KT4kfXIXidO2N-l5Cffy-0" target="KT4kfXIXidO2N-l5Cffy-4">
          <mxGeometry relative="1" as="geometry" />
        </mxCell>
        <mxCell id="KT4kfXIXidO2N-l5Cffy-7" style="edgeStyle=orthogonalEdgeStyle;rounded=0;orthogonalLoop=1;jettySize=auto;html=1;" edge="1" parent="WIyWlLk6GJQsqaUBKTNV-1" source="KT4kfXIXidO2N-l5Cffy-0" target="KT4kfXIXidO2N-l5Cffy-5">
          <mxGeometry relative="1" as="geometry" />
        </mxCell>
        <mxCell id="KT4kfXIXidO2N-l5Cffy-8" style="edgeStyle=orthogonalEdgeStyle;rounded=0;orthogonalLoop=1;jettySize=auto;html=1;" edge="1" parent="WIyWlLk6GJQsqaUBKTNV-1" source="KT4kfXIXidO2N-l5Cffy-0" target="KT4kfXIXidO2N-l5Cffy-1">
          <mxGeometry relative="1" as="geometry" />
        </mxCell>
        <mxCell id="KT4kfXIXidO2N-l5Cffy-9" style="edgeStyle=orthogonalEdgeStyle;rounded=0;orthogonalLoop=1;jettySize=auto;html=1;entryX=0.5;entryY=1;entryDx=0;entryDy=0;" edge="1" parent="WIyWlLk6GJQsqaUBKTNV-1" source="KT4kfXIXidO2N-l5Cffy-0" target="KT4kfXIXidO2N-l5Cffy-2">
          <mxGeometry relative="1" as="geometry" />
        </mxCell>
        <mxCell id="KT4kfXIXidO2N-l5Cffy-10" style="edgeStyle=orthogonalEdgeStyle;rounded=0;orthogonalLoop=1;jettySize=auto;html=1;entryX=0.5;entryY=1;entryDx=0;entryDy=0;" edge="1" parent="WIyWlLk6GJQsqaUBKTNV-1" source="KT4kfXIXidO2N-l5Cffy-0" target="KT4kfXIXidO2N-l5Cffy-3">
          <mxGeometry relative="1" as="geometry" />
        </mxCell>
        <mxCell id="KT4kfXIXidO2N-l5Cffy-13" style="edgeStyle=orthogonalEdgeStyle;rounded=0;orthogonalLoop=1;jettySize=auto;html=1;entryX=0.5;entryY=0;entryDx=0;entryDy=0;" edge="1" parent="WIyWlLk6GJQsqaUBKTNV-1" source="KT4kfXIXidO2N-l5Cffy-0" target="KT4kfXIXidO2N-l5Cffy-12">
          <mxGeometry relative="1" as="geometry" />
        </mxCell>
        <mxCell id="KT4kfXIXidO2N-l5Cffy-0" value="Member" style="rounded=0;whiteSpace=wrap;html=1;fillColor=#f8cecc;strokeColor=#b85450;" vertex="1" parent="WIyWlLk6GJQsqaUBKTNV-1">
          <mxGeometry x="250" y="190" width="120" height="60" as="geometry" />
        </mxCell>
        <mxCell id="KT4kfXIXidO2N-l5Cffy-1" value="name" style="ellipse;whiteSpace=wrap;html=1;fillColor=#a0522d;fontColor=#ffffff;strokeColor=#6D1F00;" vertex="1" parent="WIyWlLk6GJQsqaUBKTNV-1">
          <mxGeometry x="260" y="10" width="100" height="50" as="geometry" />
        </mxCell>
        <mxCell id="KT4kfXIXidO2N-l5Cffy-2" value="address" style="ellipse;whiteSpace=wrap;html=1;fillColor=#a0522d;fontColor=#ffffff;strokeColor=#6D1F00;" vertex="1" parent="WIyWlLk6GJQsqaUBKTNV-1">
          <mxGeometry x="390" y="10" width="100" height="50" as="geometry" />
        </mxCell>
        <mxCell id="KT4kfXIXidO2N-l5Cffy-3" value="email&lt;div&gt;-----------&lt;/div&gt;" style="ellipse;whiteSpace=wrap;html=1;fillColor=#a0522d;fontColor=#ffffff;strokeColor=#6D1F00;" vertex="1" parent="WIyWlLk6GJQsqaUBKTNV-1">
          <mxGeometry x="530" y="5" width="100" height="60" as="geometry" />
        </mxCell>
        <mxCell id="KT4kfXIXidO2N-l5Cffy-4" value="gender" style="ellipse;whiteSpace=wrap;html=1;fillColor=#a0522d;fontColor=#ffffff;strokeColor=#6D1F00;" vertex="1" parent="WIyWlLk6GJQsqaUBKTNV-1">
          <mxGeometry y="10" width="100" height="60" as="geometry" />
        </mxCell>
        <mxCell id="KT4kfXIXidO2N-l5Cffy-5" value="birthday" style="ellipse;whiteSpace=wrap;html=1;fillColor=#a0522d;fontColor=#ffffff;strokeColor=#6D1F00;" vertex="1" parent="WIyWlLk6GJQsqaUBKTNV-1">
          <mxGeometry x="120" y="5" width="100" height="60" as="geometry" />
        </mxCell>
        <mxCell id="KT4kfXIXidO2N-l5Cffy-11" value="minor" style="rounded=0;whiteSpace=wrap;html=1;fillColor=#f8cecc;strokeColor=#b85450;" vertex="1" parent="WIyWlLk6GJQsqaUBKTNV-1">
          <mxGeometry x="80" y="440" width="120" height="60" as="geometry" />
        </mxCell>
        <mxCell id="KT4kfXIXidO2N-l5Cffy-14" style="edgeStyle=orthogonalEdgeStyle;rounded=0;orthogonalLoop=1;jettySize=auto;html=1;entryX=0.5;entryY=0;entryDx=0;entryDy=0;" edge="1" parent="WIyWlLk6GJQsqaUBKTNV-1" source="KT4kfXIXidO2N-l5Cffy-12" target="KT4kfXIXidO2N-l5Cffy-11">
          <mxGeometry relative="1" as="geometry" />
        </mxCell>
        <mxCell id="KT4kfXIXidO2N-l5Cffy-12" value="parent" style="rhombus;whiteSpace=wrap;html=1;fillColor=#d5e8d4;strokeColor=#82b366;" vertex="1" parent="WIyWlLk6GJQsqaUBKTNV-1">
          <mxGeometry x="160" y="310" width="100" height="60" as="geometry" />
        </mxCell>
        <mxCell id="KT4kfXIXidO2N-l5Cffy-81" style="edgeStyle=orthogonalEdgeStyle;rounded=0;orthogonalLoop=1;jettySize=auto;html=1;entryX=0.75;entryY=1;entryDx=0;entryDy=0;" edge="1" parent="WIyWlLk6GJQsqaUBKTNV-1" source="KT4kfXIXidO2N-l5Cffy-16" target="KT4kfXIXidO2N-l5Cffy-0">
          <mxGeometry relative="1" as="geometry" />
        </mxCell>
        <mxCell id="KT4kfXIXidO2N-l5Cffy-16" value="Courses" style="rounded=0;whiteSpace=wrap;html=1;fillColor=#f8cecc;strokeColor=#b85450;" vertex="1" parent="WIyWlLk6GJQsqaUBKTNV-1">
          <mxGeometry x="435" y="585" width="120" height="60" as="geometry" />
        </mxCell>
        <mxCell id="KT4kfXIXidO2N-l5Cffy-20" style="edgeStyle=orthogonalEdgeStyle;rounded=0;orthogonalLoop=1;jettySize=auto;html=1;entryX=0.25;entryY=1;entryDx=0;entryDy=0;" edge="1" parent="WIyWlLk6GJQsqaUBKTNV-1" source="KT4kfXIXidO2N-l5Cffy-17" target="KT4kfXIXidO2N-l5Cffy-16">
          <mxGeometry relative="1" as="geometry" />
        </mxCell>
        <mxCell id="KT4kfXIXidO2N-l5Cffy-17" value="course number&lt;div&gt;-------------------&lt;/div&gt;" style="ellipse;whiteSpace=wrap;html=1;fillColor=#a0522d;fontColor=#ffffff;strokeColor=#6D1F00;" vertex="1" parent="WIyWlLk6GJQsqaUBKTNV-1">
          <mxGeometry x="310" y="730" width="100" height="50" as="geometry" />
        </mxCell>
        <mxCell id="KT4kfXIXidO2N-l5Cffy-21" style="edgeStyle=orthogonalEdgeStyle;rounded=0;orthogonalLoop=1;jettySize=auto;html=1;" edge="1" parent="WIyWlLk6GJQsqaUBKTNV-1" source="KT4kfXIXidO2N-l5Cffy-18" target="KT4kfXIXidO2N-l5Cffy-16">
          <mxGeometry relative="1" as="geometry" />
        </mxCell>
        <mxCell id="KT4kfXIXidO2N-l5Cffy-18" value="title" style="ellipse;whiteSpace=wrap;html=1;fillColor=#a0522d;fontColor=#ffffff;strokeColor=#6D1F00;" vertex="1" parent="WIyWlLk6GJQsqaUBKTNV-1">
          <mxGeometry x="460" y="770" width="110" height="60" as="geometry" />
        </mxCell>
        <mxCell id="KT4kfXIXidO2N-l5Cffy-33" style="edgeStyle=orthogonalEdgeStyle;rounded=0;orthogonalLoop=1;jettySize=auto;html=1;entryX=0.75;entryY=1;entryDx=0;entryDy=0;" edge="1" parent="WIyWlLk6GJQsqaUBKTNV-1" source="KT4kfXIXidO2N-l5Cffy-19" target="KT4kfXIXidO2N-l5Cffy-16">
          <mxGeometry relative="1" as="geometry">
            <Array as="points">
              <mxPoint x="670" y="710" />
              <mxPoint x="525" y="710" />
            </Array>
          </mxGeometry>
        </mxCell>
        <mxCell id="KT4kfXIXidO2N-l5Cffy-19" value="target" style="ellipse;whiteSpace=wrap;html=1;fillColor=#a0522d;fontColor=#ffffff;strokeColor=#6D1F00;" vertex="1" parent="WIyWlLk6GJQsqaUBKTNV-1">
          <mxGeometry x="620" y="750" width="100" height="50" as="geometry" />
        </mxCell>
        <mxCell id="KT4kfXIXidO2N-l5Cffy-31" style="edgeStyle=orthogonalEdgeStyle;rounded=0;orthogonalLoop=1;jettySize=auto;html=1;entryX=0.5;entryY=0;entryDx=0;entryDy=0;" edge="1" parent="WIyWlLk6GJQsqaUBKTNV-1" source="KT4kfXIXidO2N-l5Cffy-23" target="KT4kfXIXidO2N-l5Cffy-30">
          <mxGeometry relative="1" as="geometry" />
        </mxCell>
        <mxCell id="KT4kfXIXidO2N-l5Cffy-23" value="trainer" style="rounded=0;whiteSpace=wrap;html=1;fillColor=#f8cecc;strokeColor=#b85450;" vertex="1" parent="WIyWlLk6GJQsqaUBKTNV-1">
          <mxGeometry x="580" y="320" width="120" height="60" as="geometry" />
        </mxCell>
        <mxCell id="KT4kfXIXidO2N-l5Cffy-27" style="edgeStyle=orthogonalEdgeStyle;rounded=0;orthogonalLoop=1;jettySize=auto;html=1;entryX=1;entryY=0.25;entryDx=0;entryDy=0;" edge="1" parent="WIyWlLk6GJQsqaUBKTNV-1" source="KT4kfXIXidO2N-l5Cffy-24" target="KT4kfXIXidO2N-l5Cffy-23">
          <mxGeometry relative="1" as="geometry" />
        </mxCell>
        <mxCell id="KT4kfXIXidO2N-l5Cffy-24" value="name&lt;div&gt;------------&lt;/div&gt;" style="ellipse;whiteSpace=wrap;html=1;fillColor=#a0522d;fontColor=#ffffff;strokeColor=#6D1F00;" vertex="1" parent="WIyWlLk6GJQsqaUBKTNV-1">
          <mxGeometry x="785" y="220" width="110" height="50" as="geometry" />
        </mxCell>
        <mxCell id="KT4kfXIXidO2N-l5Cffy-28" style="edgeStyle=orthogonalEdgeStyle;rounded=0;orthogonalLoop=1;jettySize=auto;html=1;entryX=1;entryY=0.5;entryDx=0;entryDy=0;" edge="1" parent="WIyWlLk6GJQsqaUBKTNV-1" source="KT4kfXIXidO2N-l5Cffy-25" target="KT4kfXIXidO2N-l5Cffy-23">
          <mxGeometry relative="1" as="geometry" />
        </mxCell>
        <mxCell id="KT4kfXIXidO2N-l5Cffy-25" value="license" style="ellipse;whiteSpace=wrap;html=1;fillColor=#a0522d;fontColor=#ffffff;strokeColor=#6D1F00;" vertex="1" parent="WIyWlLk6GJQsqaUBKTNV-1">
          <mxGeometry x="840" y="330" width="100" height="60" as="geometry" />
        </mxCell>
        <mxCell id="KT4kfXIXidO2N-l5Cffy-29" style="edgeStyle=orthogonalEdgeStyle;rounded=0;orthogonalLoop=1;jettySize=auto;html=1;entryX=1;entryY=0.75;entryDx=0;entryDy=0;" edge="1" parent="WIyWlLk6GJQsqaUBKTNV-1" source="KT4kfXIXidO2N-l5Cffy-26" target="KT4kfXIXidO2N-l5Cffy-23">
          <mxGeometry relative="1" as="geometry" />
        </mxCell>
        <mxCell id="KT4kfXIXidO2N-l5Cffy-26" value="courses" style="ellipse;whiteSpace=wrap;html=1;fillColor=#a0522d;fontColor=#ffffff;strokeColor=#6D1F00;" vertex="1" parent="WIyWlLk6GJQsqaUBKTNV-1">
          <mxGeometry x="850" y="430" width="110" height="60" as="geometry" />
        </mxCell>
        <mxCell id="KT4kfXIXidO2N-l5Cffy-32" style="edgeStyle=orthogonalEdgeStyle;rounded=0;orthogonalLoop=1;jettySize=auto;html=1;entryX=0.5;entryY=0;entryDx=0;entryDy=0;" edge="1" parent="WIyWlLk6GJQsqaUBKTNV-1" source="KT4kfXIXidO2N-l5Cffy-30" target="KT4kfXIXidO2N-l5Cffy-16">
          <mxGeometry relative="1" as="geometry" />
        </mxCell>
        <mxCell id="KT4kfXIXidO2N-l5Cffy-30" value="teaches" style="rhombus;whiteSpace=wrap;html=1;fillColor=#d5e8d4;strokeColor=#82b366;" vertex="1" parent="WIyWlLk6GJQsqaUBKTNV-1">
          <mxGeometry x="475" y="430" width="105" height="80" as="geometry" />
        </mxCell>
        <mxCell id="KT4kfXIXidO2N-l5Cffy-56" style="edgeStyle=orthogonalEdgeStyle;rounded=0;orthogonalLoop=1;jettySize=auto;html=1;entryX=0.5;entryY=0;entryDx=0;entryDy=0;" edge="1" parent="WIyWlLk6GJQsqaUBKTNV-1" source="KT4kfXIXidO2N-l5Cffy-34" target="KT4kfXIXidO2N-l5Cffy-54">
          <mxGeometry relative="1" as="geometry" />
        </mxCell>
        <mxCell id="KT4kfXIXidO2N-l5Cffy-34" value="Area" style="rounded=0;whiteSpace=wrap;html=1;fillColor=#f8cecc;strokeColor=#b85450;" vertex="1" parent="WIyWlLk6GJQsqaUBKTNV-1">
          <mxGeometry x="730" y="562.5" width="120" height="60" as="geometry" />
        </mxCell>
        <mxCell id="KT4kfXIXidO2N-l5Cffy-38" value="fitness" style="rounded=0;whiteSpace=wrap;html=1;fillColor=#f8cecc;strokeColor=#b85450;" vertex="1" parent="WIyWlLk6GJQsqaUBKTNV-1">
          <mxGeometry x="1160" y="490" width="120" height="60" as="geometry" />
        </mxCell>
        <mxCell id="KT4kfXIXidO2N-l5Cffy-39" value="wrestling" style="rounded=0;whiteSpace=wrap;html=1;fillColor=#f8cecc;strokeColor=#b85450;" vertex="1" parent="WIyWlLk6GJQsqaUBKTNV-1">
          <mxGeometry x="1190" y="585" width="120" height="60" as="geometry" />
        </mxCell>
        <mxCell id="KT4kfXIXidO2N-l5Cffy-40" value="athletics" style="rounded=0;whiteSpace=wrap;html=1;fillColor=#f8cecc;strokeColor=#b85450;" vertex="1" parent="WIyWlLk6GJQsqaUBKTNV-1">
          <mxGeometry x="1181" y="695" width="120" height="60" as="geometry" />
        </mxCell>
        <mxCell id="KT4kfXIXidO2N-l5Cffy-42" style="edgeStyle=orthogonalEdgeStyle;rounded=0;orthogonalLoop=1;jettySize=auto;html=1;" edge="1" parent="WIyWlLk6GJQsqaUBKTNV-1" source="KT4kfXIXidO2N-l5Cffy-41" target="KT4kfXIXidO2N-l5Cffy-38">
          <mxGeometry relative="1" as="geometry" />
        </mxCell>
        <mxCell id="KT4kfXIXidO2N-l5Cffy-43" style="edgeStyle=orthogonalEdgeStyle;rounded=0;orthogonalLoop=1;jettySize=auto;html=1;entryX=1;entryY=0.25;entryDx=0;entryDy=0;" edge="1" parent="WIyWlLk6GJQsqaUBKTNV-1" source="KT4kfXIXidO2N-l5Cffy-41" target="KT4kfXIXidO2N-l5Cffy-34">
          <mxGeometry relative="1" as="geometry" />
        </mxCell>
        <mxCell id="KT4kfXIXidO2N-l5Cffy-41" value="belong" style="rhombus;whiteSpace=wrap;html=1;fillColor=#d5e8d4;strokeColor=#82b366;" vertex="1" parent="WIyWlLk6GJQsqaUBKTNV-1">
          <mxGeometry x="980" y="480" width="100" height="75" as="geometry" />
        </mxCell>
        <mxCell id="KT4kfXIXidO2N-l5Cffy-45" style="edgeStyle=orthogonalEdgeStyle;rounded=0;orthogonalLoop=1;jettySize=auto;html=1;entryX=0;entryY=0.5;entryDx=0;entryDy=0;" edge="1" parent="WIyWlLk6GJQsqaUBKTNV-1" source="KT4kfXIXidO2N-l5Cffy-44" target="KT4kfXIXidO2N-l5Cffy-39">
          <mxGeometry relative="1" as="geometry" />
        </mxCell>
        <mxCell id="KT4kfXIXidO2N-l5Cffy-46" style="edgeStyle=orthogonalEdgeStyle;rounded=0;orthogonalLoop=1;jettySize=auto;html=1;entryX=1;entryY=0.5;entryDx=0;entryDy=0;" edge="1" parent="WIyWlLk6GJQsqaUBKTNV-1" source="KT4kfXIXidO2N-l5Cffy-44" target="KT4kfXIXidO2N-l5Cffy-34">
          <mxGeometry relative="1" as="geometry" />
        </mxCell>
        <mxCell id="KT4kfXIXidO2N-l5Cffy-44" value="belong" style="rhombus;whiteSpace=wrap;html=1;fillColor=#d5e8d4;strokeColor=#82b366;" vertex="1" parent="WIyWlLk6GJQsqaUBKTNV-1">
          <mxGeometry x="1000" y="575" width="100" height="75" as="geometry" />
        </mxCell>
        <mxCell id="KT4kfXIXidO2N-l5Cffy-48" style="edgeStyle=orthogonalEdgeStyle;rounded=0;orthogonalLoop=1;jettySize=auto;html=1;" edge="1" parent="WIyWlLk6GJQsqaUBKTNV-1" source="KT4kfXIXidO2N-l5Cffy-47" target="KT4kfXIXidO2N-l5Cffy-40">
          <mxGeometry relative="1" as="geometry" />
        </mxCell>
        <mxCell id="KT4kfXIXidO2N-l5Cffy-49" style="edgeStyle=orthogonalEdgeStyle;rounded=0;orthogonalLoop=1;jettySize=auto;html=1;entryX=1;entryY=0.75;entryDx=0;entryDy=0;" edge="1" parent="WIyWlLk6GJQsqaUBKTNV-1" source="KT4kfXIXidO2N-l5Cffy-47" target="KT4kfXIXidO2N-l5Cffy-34">
          <mxGeometry relative="1" as="geometry" />
        </mxCell>
        <mxCell id="KT4kfXIXidO2N-l5Cffy-47" value="belong" style="rhombus;whiteSpace=wrap;html=1;fillColor=#d5e8d4;strokeColor=#82b366;" vertex="1" parent="WIyWlLk6GJQsqaUBKTNV-1">
          <mxGeometry x="970" y="675" width="100" height="75" as="geometry" />
        </mxCell>
        <mxCell id="KT4kfXIXidO2N-l5Cffy-51" style="edgeStyle=orthogonalEdgeStyle;rounded=0;orthogonalLoop=1;jettySize=auto;html=1;" edge="1" parent="WIyWlLk6GJQsqaUBKTNV-1" source="KT4kfXIXidO2N-l5Cffy-50" target="KT4kfXIXidO2N-l5Cffy-34">
          <mxGeometry relative="1" as="geometry" />
        </mxCell>
        <mxCell id="KT4kfXIXidO2N-l5Cffy-52" style="edgeStyle=orthogonalEdgeStyle;rounded=0;orthogonalLoop=1;jettySize=auto;html=1;entryX=1;entryY=0.5;entryDx=0;entryDy=0;" edge="1" parent="WIyWlLk6GJQsqaUBKTNV-1" source="KT4kfXIXidO2N-l5Cffy-50" target="KT4kfXIXidO2N-l5Cffy-16">
          <mxGeometry relative="1" as="geometry" />
        </mxCell>
        <mxCell id="KT4kfXIXidO2N-l5Cffy-50" value="belong" style="rhombus;whiteSpace=wrap;html=1;fillColor=#d5e8d4;strokeColor=#82b366;" vertex="1" parent="WIyWlLk6GJQsqaUBKTNV-1">
          <mxGeometry x="600" y="562.5" width="100" height="75" as="geometry" />
        </mxCell>
        <mxCell id="KT4kfXIXidO2N-l5Cffy-54" value="name&lt;div&gt;---------------&lt;/div&gt;" style="ellipse;whiteSpace=wrap;html=1;fillColor=#a0522d;fontColor=#ffffff;strokeColor=#6D1F00;" vertex="1" parent="WIyWlLk6GJQsqaUBKTNV-1">
          <mxGeometry x="750" y="830" width="100" height="60" as="geometry" />
        </mxCell>
        <mxCell id="KT4kfXIXidO2N-l5Cffy-57" style="edgeStyle=orthogonalEdgeStyle;rounded=0;orthogonalLoop=1;jettySize=auto;html=1;entryX=0.75;entryY=1;entryDx=0;entryDy=0;" edge="1" parent="WIyWlLk6GJQsqaUBKTNV-1" source="KT4kfXIXidO2N-l5Cffy-55" target="KT4kfXIXidO2N-l5Cffy-34">
          <mxGeometry relative="1" as="geometry" />
        </mxCell>
        <mxCell id="KT4kfXIXidO2N-l5Cffy-55" value="description" style="ellipse;whiteSpace=wrap;html=1;fillColor=#a0522d;fontColor=#ffffff;strokeColor=#6D1F00;" vertex="1" parent="WIyWlLk6GJQsqaUBKTNV-1">
          <mxGeometry x="870" y="760" width="100" height="60" as="geometry" />
        </mxCell>
        <mxCell id="KT4kfXIXidO2N-l5Cffy-59" style="edgeStyle=orthogonalEdgeStyle;rounded=0;orthogonalLoop=1;jettySize=auto;html=1;entryX=0.75;entryY=1;entryDx=0;entryDy=0;" edge="1" parent="WIyWlLk6GJQsqaUBKTNV-1" source="KT4kfXIXidO2N-l5Cffy-58" target="KT4kfXIXidO2N-l5Cffy-23">
          <mxGeometry relative="1" as="geometry" />
        </mxCell>
        <mxCell id="KT4kfXIXidO2N-l5Cffy-58" value="heads" style="rhombus;whiteSpace=wrap;html=1;fillColor=#d5e8d4;strokeColor=#82b366;" vertex="1" parent="WIyWlLk6GJQsqaUBKTNV-1">
          <mxGeometry x="670" y="460" width="100" height="60" as="geometry" />
        </mxCell>
        <mxCell id="KT4kfXIXidO2N-l5Cffy-60" style="edgeStyle=orthogonalEdgeStyle;rounded=0;orthogonalLoop=1;jettySize=auto;html=1;entryX=0.45;entryY=0.075;entryDx=0;entryDy=0;entryPerimeter=0;" edge="1" parent="WIyWlLk6GJQsqaUBKTNV-1" source="KT4kfXIXidO2N-l5Cffy-58" target="KT4kfXIXidO2N-l5Cffy-34">
          <mxGeometry relative="1" as="geometry" />
        </mxCell>
        <mxCell id="KT4kfXIXidO2N-l5Cffy-64" value="&lt;font style=&quot;font-size: 25px;&quot;&gt;N&lt;/font&gt;" style="text;html=1;align=center;verticalAlign=middle;whiteSpace=wrap;rounded=0;fontColor=#FF0303;" vertex="1" parent="WIyWlLk6GJQsqaUBKTNV-1">
          <mxGeometry x="160" y="280" width="60" height="30" as="geometry" />
        </mxCell>
        <mxCell id="KT4kfXIXidO2N-l5Cffy-65" value="&lt;font color=&quot;#ff0000&quot; style=&quot;font-size: 25px;&quot;&gt;1&lt;/font&gt;" style="text;html=1;align=center;verticalAlign=middle;resizable=0;points=[];autosize=1;strokeColor=none;fillColor=none;" vertex="1" parent="WIyWlLk6GJQsqaUBKTNV-1">
          <mxGeometry x="170" y="363" width="40" height="40" as="geometry" />
        </mxCell>
        <mxCell id="KT4kfXIXidO2N-l5Cffy-68" value="&lt;font color=&quot;#ff0000&quot; style=&quot;font-size: 25px;&quot;&gt;1&lt;/font&gt;" style="text;html=1;align=center;verticalAlign=middle;resizable=0;points=[];autosize=1;strokeColor=none;fillColor=none;" vertex="1" parent="WIyWlLk6GJQsqaUBKTNV-1">
          <mxGeometry x="720" y="420" width="40" height="40" as="geometry" />
        </mxCell>
        <mxCell id="KT4kfXIXidO2N-l5Cffy-69" value="&lt;font color=&quot;#ff0000&quot; style=&quot;font-size: 25px;&quot;&gt;1&lt;/font&gt;" style="text;html=1;align=center;verticalAlign=middle;resizable=0;points=[];autosize=1;strokeColor=none;fillColor=none;" vertex="1" parent="WIyWlLk6GJQsqaUBKTNV-1">
          <mxGeometry x="730" y="500" width="40" height="40" as="geometry" />
        </mxCell>
        <mxCell id="KT4kfXIXidO2N-l5Cffy-70" value="&lt;font style=&quot;font-size: 25px;&quot;&gt;N&lt;/font&gt;" style="text;html=1;align=center;verticalAlign=middle;whiteSpace=wrap;rounded=0;fontColor=#FF0303;" vertex="1" parent="WIyWlLk6GJQsqaUBKTNV-1">
          <mxGeometry x="560" y="562.5" width="60" height="30" as="geometry" />
        </mxCell>
        <mxCell id="KT4kfXIXidO2N-l5Cffy-71" value="&lt;font style=&quot;font-size: 25px;&quot;&gt;N&lt;/font&gt;" style="text;html=1;align=center;verticalAlign=middle;whiteSpace=wrap;rounded=0;fontColor=#FF0303;" vertex="1" parent="WIyWlLk6GJQsqaUBKTNV-1">
          <mxGeometry x="670" y="562.5" width="60" height="30" as="geometry" />
        </mxCell>
        <mxCell id="KT4kfXIXidO2N-l5Cffy-72" value="&lt;font color=&quot;#ff0000&quot; style=&quot;font-size: 25px;&quot;&gt;1&lt;/font&gt;" style="text;html=1;align=center;verticalAlign=middle;resizable=0;points=[];autosize=1;strokeColor=none;fillColor=none;" vertex="1" parent="WIyWlLk6GJQsqaUBKTNV-1">
          <mxGeometry x="1090" y="562.5" width="40" height="40" as="geometry" />
        </mxCell>
        <mxCell id="KT4kfXIXidO2N-l5Cffy-73" value="&lt;font color=&quot;#ff0000&quot; style=&quot;font-size: 25px;&quot;&gt;1&lt;/font&gt;" style="text;html=1;align=center;verticalAlign=middle;resizable=0;points=[];autosize=1;strokeColor=none;fillColor=none;" vertex="1" parent="WIyWlLk6GJQsqaUBKTNV-1">
          <mxGeometry x="1070" y="480" width="40" height="40" as="geometry" />
        </mxCell>
        <mxCell id="KT4kfXIXidO2N-l5Cffy-74" value="&lt;font color=&quot;#ff0000&quot; style=&quot;font-size: 25px;&quot;&gt;1&lt;/font&gt;" style="text;html=1;align=center;verticalAlign=middle;resizable=0;points=[];autosize=1;strokeColor=none;fillColor=none;" vertex="1" parent="WIyWlLk6GJQsqaUBKTNV-1">
          <mxGeometry x="1060" y="670" width="40" height="40" as="geometry" />
        </mxCell>
        <mxCell id="KT4kfXIXidO2N-l5Cffy-75" value="&lt;font style=&quot;font-size: 25px;&quot;&gt;N&lt;/font&gt;" style="text;html=1;align=center;verticalAlign=middle;whiteSpace=wrap;rounded=0;fontColor=#FF0303;" vertex="1" parent="WIyWlLk6GJQsqaUBKTNV-1">
          <mxGeometry x="940" y="475" width="60" height="30" as="geometry" />
        </mxCell>
        <mxCell id="KT4kfXIXidO2N-l5Cffy-76" value="&lt;font style=&quot;font-size: 25px;&quot;&gt;N&lt;/font&gt;" style="text;html=1;align=center;verticalAlign=middle;whiteSpace=wrap;rounded=0;fontColor=#FF0303;" vertex="1" parent="WIyWlLk6GJQsqaUBKTNV-1">
          <mxGeometry x="950" y="575" width="60" height="30" as="geometry" />
        </mxCell>
        <mxCell id="KT4kfXIXidO2N-l5Cffy-77" value="&lt;font style=&quot;font-size: 25px;&quot;&gt;N&lt;/font&gt;" style="text;html=1;align=center;verticalAlign=middle;whiteSpace=wrap;rounded=0;fontColor=#FF0303;" vertex="1" parent="WIyWlLk6GJQsqaUBKTNV-1">
          <mxGeometry x="930" y="675" width="60" height="30" as="geometry" />
        </mxCell>
        <mxCell id="KT4kfXIXidO2N-l5Cffy-78" value="&lt;font style=&quot;font-size: 25px;&quot;&gt;N&lt;/font&gt;" style="text;html=1;align=center;verticalAlign=middle;whiteSpace=wrap;rounded=0;fontColor=#FF0303;" vertex="1" parent="WIyWlLk6GJQsqaUBKTNV-1">
          <mxGeometry x="480" y="390" width="60" height="30" as="geometry" />
        </mxCell>
        <mxCell id="KT4kfXIXidO2N-l5Cffy-80" value="&lt;font style=&quot;font-size: 25px;&quot;&gt;N&lt;/font&gt;" style="text;html=1;align=center;verticalAlign=middle;whiteSpace=wrap;rounded=0;fontColor=#FF0303;" vertex="1" parent="WIyWlLk6GJQsqaUBKTNV-1">
          <mxGeometry x="480" y="502.5" width="60" height="30" as="geometry" />
        </mxCell>
        <mxCell id="KT4kfXIXidO2N-l5Cffy-82" value="" style="line;strokeWidth=2;html=1;" vertex="1" parent="WIyWlLk6GJQsqaUBKTNV-1">
          <mxGeometry x="600" y="540" width="160" height="10" as="geometry" />
        </mxCell>
        <mxCell id="KT4kfXIXidO2N-l5Cffy-84" value="" style="endArrow=none;html=1;rounded=0;" edge="1" parent="WIyWlLk6GJQsqaUBKTNV-1">
          <mxGeometry width="50" height="50" relative="1" as="geometry">
            <mxPoint x="410" y="610" as="sourcePoint" />
            <mxPoint x="430" y="600" as="targetPoint" />
          </mxGeometry>
        </mxCell>
        <mxCell id="KT4kfXIXidO2N-l5Cffy-85" value="" style="endArrow=none;html=1;rounded=0;" edge="1" parent="WIyWlLk6GJQsqaUBKTNV-1">
          <mxGeometry width="50" height="50" relative="1" as="geometry">
            <mxPoint x="410" y="620" as="sourcePoint" />
            <mxPoint x="430" y="630" as="targetPoint" />
          </mxGeometry>
        </mxCell>
        <mxCell id="KT4kfXIXidO2N-l5Cffy-86" value="" style="endArrow=none;html=1;rounded=0;" edge="1" parent="WIyWlLk6GJQsqaUBKTNV-1">
          <mxGeometry width="50" height="50" relative="1" as="geometry">
            <mxPoint x="390" y="630" as="sourcePoint" />
            <mxPoint x="390" y="600" as="targetPoint" />
          </mxGeometry>
        </mxCell>
        <mxCell id="KT4kfXIXidO2N-l5Cffy-87" value="" style="endArrow=none;html=1;rounded=0;" edge="1" parent="WIyWlLk6GJQsqaUBKTNV-1">
          <mxGeometry width="50" height="50" relative="1" as="geometry">
            <mxPoint x="330" y="280" as="sourcePoint" />
            <mxPoint x="320" y="260" as="targetPoint" />
          </mxGeometry>
        </mxCell>
        <mxCell id="KT4kfXIXidO2N-l5Cffy-88" value="" style="endArrow=none;html=1;rounded=0;" edge="1" parent="WIyWlLk6GJQsqaUBKTNV-1">
          <mxGeometry width="50" height="50" relative="1" as="geometry">
            <mxPoint x="350" y="280" as="sourcePoint" />
            <mxPoint x="360" y="260" as="targetPoint" />
          </mxGeometry>
        </mxCell>
        <mxCell id="KT4kfXIXidO2N-l5Cffy-89" value="" style="endArrow=none;html=1;rounded=0;" edge="1" parent="WIyWlLk6GJQsqaUBKTNV-1">
          <mxGeometry width="50" height="50" relative="1" as="geometry">
            <mxPoint x="320" y="300" as="sourcePoint" />
            <mxPoint x="360" y="300" as="targetPoint" />
          </mxGeometry>
        </mxCell>
        <mxCell id="KT4kfXIXidO2N-l5Cffy-90" value="&lt;font style=&quot;font-size: 21px;&quot;&gt;Enrolls&lt;/font&gt;" style="text;html=1;align=center;verticalAlign=middle;whiteSpace=wrap;rounded=0;fontColor=#FF0019;" vertex="1" parent="WIyWlLk6GJQsqaUBKTNV-1">
          <mxGeometry x="310" y="485" width="60" height="30" as="geometry" />
        </mxCell>
      </root>
    </mxGraphModel>
  </diagram>
</mxfile>
